# xmcd
#
# Track frame offsets:
# 150
# 10687
# 22105
# 36360
# 47022
# 61991
# 74954
# 85653
# 97889
# 109982
# 124248
# 134267
# 143824
# 156120
# 168114
# 180069
# 190517
# 203387
# 215984
# 228450
# 238407
# 251637
# 265339
# 278494
# 292354
#
# Disc length: 4083 seconds
#
#
# Revision: 0
# Processed by: cddbd v1.4PL0 Copyright (c) Steve Scherf et al.
# Submitted via: FreeRIP 2.20 
#
DISCID=6f0ff119
DTITLE=Slim Whitman - The Greatest 
DYEAR=1900
DGENRE=Country
TTITLE0=Rose Marie
TTITLE1=Happy Anniversary
TTITLE2=Indian Love Call
TTITLE3=Rhinestone Cowboy
TTITLE4=Riders in the Sky
TTITLE5=China Doll
TTITLE6=The Most Beautiful Girl in the World
TTITLE7=I Fall to Pieces
TTITLE8=I Love You Because
TTITLE9=Red River Valley
TTITLE10=I Can't Stop Loving You
TTITLE11=From A Jack to A King
TTITLE12=There Goes My Everything
TTITLE13=Paper Roses
TTITLE14=Top of the World
TTITLE15=Have I Told You Lately That I Love You
TTITLE16=Stranger on the Shore
TTITLE17=Secret Love
TTITLE18=I Pretend
TTITLE19=The Twelth of Never
TTITLE20=I'll Take You Home Kathleen
TTITLE21=Tumbling Tumbleweeds
TTITLE22=Love Song of a Waterfall
TTITLE23=Danny Boy
TTITLE24=You Are My Sunshine
EXTD=
EXTT0=
EXTT1=
EXTT2=
EXTT3=
EXTT4=
EXTT5=
EXTT6=
EXTT7=
EXTT8=
EXTT9=
EXTT10=
EXTT11=
EXTT12=
EXTT13=
EXTT14=
EXTT15=
EXTT16=
EXTT17=
EXTT18=
EXTT19=
EXTT20=
EXTT21=
EXTT22=
EXTT23=
EXTT24=
PLAYORDER=
